<mxfile host="65bd71144e">
    <diagram id="sEuAeZz6BzaUlnTTsf4H" name="Page-1">
        <mxGraphModel dx="2576" dy="666" grid="1" gridSize="10" guides="1" tooltips="1" connect="1" arrows="1" fold="1" page="1" pageScale="1" pageWidth="850" pageHeight="1100" math="0" shadow="0">
            <root>
                <mxCell id="0"/>
                <mxCell id="1" parent="0"/>
                <mxCell id="2" value="Vertical Container" style="swimlane;whiteSpace=wrap;html=1;" vertex="1" parent="1">
                    <mxGeometry x="-380" y="230" width="1140" height="640" as="geometry"/>
                </mxCell>
                <mxCell id="3" value="-" style="rounded=1;whiteSpace=wrap;html=1;" vertex="1" parent="2">
                    <mxGeometry x="690" y="420" width="90" height="40" as="geometry"/>
                </mxCell>
                <mxCell id="15" value="7" style="rounded=1;whiteSpace=wrap;html=1;" vertex="1" parent="2">
                    <mxGeometry x="360" y="480" width="90" height="40" as="geometry"/>
                </mxCell>
                <mxCell id="14" value="8" style="rounded=1;whiteSpace=wrap;html=1;" vertex="1" parent="2">
                    <mxGeometry x="470" y="480" width="90" height="40" as="geometry"/>
                </mxCell>
                <mxCell id="13" value="9" style="rounded=1;whiteSpace=wrap;html=1;" vertex="1" parent="2">
                    <mxGeometry x="580" y="480" width="90" height="40" as="geometry"/>
                </mxCell>
                <mxCell id="12" value="4" style="rounded=1;whiteSpace=wrap;html=1;" vertex="1" parent="2">
                    <mxGeometry x="360" y="420" width="90" height="40" as="geometry"/>
                </mxCell>
                <mxCell id="11" value="5" style="rounded=1;whiteSpace=wrap;html=1;" vertex="1" parent="2">
                    <mxGeometry x="470" y="420" width="90" height="40" as="geometry"/>
                </mxCell>
                <mxCell id="10" value="6" style="rounded=1;whiteSpace=wrap;html=1;" vertex="1" parent="2">
                    <mxGeometry x="580" y="420" width="90" height="40" as="geometry"/>
                </mxCell>
                <mxCell id="9" value="1" style="rounded=1;whiteSpace=wrap;html=1;" vertex="1" parent="2">
                    <mxGeometry x="360" y="360" width="90" height="40" as="geometry"/>
                </mxCell>
                <mxCell id="8" value="2" style="rounded=1;whiteSpace=wrap;html=1;" vertex="1" parent="2">
                    <mxGeometry x="470" y="360" width="90" height="40" as="geometry"/>
                </mxCell>
                <mxCell id="7" value="3" style="rounded=1;whiteSpace=wrap;html=1;" vertex="1" parent="2">
                    <mxGeometry x="580" y="360" width="90" height="40" as="geometry"/>
                </mxCell>
                <mxCell id="6" value="รท" style="rounded=1;whiteSpace=wrap;html=1;fontStyle=1" vertex="1" parent="2">
                    <mxGeometry x="690" y="540" width="90" height="40" as="geometry"/>
                </mxCell>
                <mxCell id="5" value="x" style="rounded=1;whiteSpace=wrap;html=1;" vertex="1" parent="2">
                    <mxGeometry x="690" y="480" width="90" height="40" as="geometry"/>
                </mxCell>
                <mxCell id="4" value="+" style="rounded=1;whiteSpace=wrap;html=1;" vertex="1" parent="2">
                    <mxGeometry x="690" y="360" width="90" height="40" as="geometry"/>
                </mxCell>
                <mxCell id="18" value="=" style="rounded=1;whiteSpace=wrap;html=1;" vertex="1" parent="2">
                    <mxGeometry x="470" y="540" width="200" height="40" as="geometry"/>
                </mxCell>
                <mxCell id="19" value="Input" style="text;html=1;strokeColor=none;fillColor=none;align=center;verticalAlign=middle;whiteSpace=wrap;rounded=0;" vertex="1" parent="2">
                    <mxGeometry x="375" y="290" width="60" height="30" as="geometry"/>
                </mxCell>
                <mxCell id="20" value="Output" style="text;html=1;strokeColor=none;fillColor=none;align=center;verticalAlign=middle;whiteSpace=wrap;rounded=0;" vertex="1" parent="2">
                    <mxGeometry x="595" y="290" width="60" height="30" as="geometry"/>
                </mxCell>
            </root>
        </mxGraphModel>
    </diagram>
</mxfile>